# xmcd
#
# Track frame offsets:
#	150
#	17187
#	33027
#	50510
#	67552
#	88122
#	105100
#	125740
#
# Disc length: 1929 seconds
#
# Revision: 0
# Processed by: cddbd v1.5.2PL0 Copyright (c) Steve Scherf et al.
# Submitted via: EasyCDDAExtractor 15.2.5.1
#
DISCID=57078708
DTITLE=철이와 미애 - 1집 철이와 미애 (1993) by oreum.com
DYEAR=1993
DGENRE=Pop
TTITLE0=너는 왜
TTITLE1=보물상자
TTITLE2=윙크
TTITLE3=하늘 따먹기
TTITLE4=철이와 미애(Techno Mega Mix)
TTITLE5=하늘 따먹기(Final Mix)
TTITLE6=철이와 미애(Techno Mega Mix) [Instrumental]
TTITLE7=보물상자 [Hidden Track]
EXTD=
EXTT0=
EXTT1=
EXTT2=
EXTT3=
EXTT4=
EXTT5=
EXTT6=
EXTT7=
PLAYORDER=
